<svg xmlns="http://www.w3.org/2000/svg" viewBox="0 0 32 32">
  <defs>
    <linearGradient id="foxGradient" x1="0%" y1="0%" x2="100%" y2="100%">
      <stop offset="0%" style="stop-color:#f59e0b"/>
      <stop offset="100%" style="stop-color:#d97706"/>
    </linearGradient>
  </defs>
  <!-- Fox face base -->
  <path d="M16 4 L6 12 L6 22 Q6 28 16 28 Q26 28 26 22 L26 12 Z" fill="url(#foxGradient)"/>
  <!-- Left ear -->
  <path d="M6 12 L4 4 L10 10 Z" fill="#f59e0b"/>
  <!-- Right ear -->
  <path d="M26 12 L28 4 L22 10 Z" fill="#f59e0b"/>
  <!-- Inner left ear -->
  <path d="M6.5 10 L5.5 5 L9 9 Z" fill="#fbbf24"/>
  <!-- Inner right ear -->
  <path d="M25.5 10 L26.5 5 L23 9 Z" fill="#fbbf24"/>
  <!-- White face markings -->
  <path d="M16 14 Q12 16 12 20 L16 24 L20 20 Q20 16 16 14" fill="#fefce8"/>
  <!-- Left eye -->
  <circle cx="11" cy="16" r="2" fill="#1c1917"/>
  <circle cx="11.5" cy="15.5" r="0.5" fill="#fff"/>
  <!-- Right eye -->
  <circle cx="21" cy="16" r="2" fill="#1c1917"/>
  <circle cx="21.5" cy="15.5" r="0.5" fill="#fff"/>
  <!-- Nose -->
  <ellipse cx="16" cy="21" rx="1.5" ry="1" fill="#1c1917"/>
</svg>
